<svg width="673" height="144" viewBox="0 0 673 144" fill="none" xmlns="http://www.w3.org/2000/svg">
<rect x="3" y="3" width="667" height="133" stroke="#28B5BE" stroke-width="6"/>
<path d="M49.0455 104V45.8182H56.0909V74.6818H56.7727L82.9091 45.8182H92.1136L67.6818 72.0682L92.1136 104H83.5909L63.3636 76.9545L56.0909 85.1364V104H49.0455Z" fill="#28B5BE"/>
<path d="M357.864 64H350.818C350.402 61.9735 349.672 60.1932 348.631 58.6591C347.608 57.125 346.358 55.8371 344.881 54.7955C343.422 53.7348 341.803 52.9394 340.023 52.4091C338.242 51.8788 336.386 51.6136 334.455 51.6136C330.932 51.6136 327.741 52.5038 324.881 54.2841C322.04 56.0644 319.777 58.6875 318.091 62.1534C316.424 65.6193 315.591 69.8712 315.591 74.9091C315.591 79.947 316.424 84.1989 318.091 87.6648C319.777 91.1307 322.04 93.7538 324.881 95.5341C327.741 97.3144 330.932 98.2045 334.455 98.2045C336.386 98.2045 338.242 97.9394 340.023 97.4091C341.803 96.8788 343.422 96.0928 344.881 95.0511C346.358 93.9905 347.608 92.6932 348.631 91.1591C349.672 89.6061 350.402 87.8258 350.818 85.8182H357.864C357.333 88.7917 356.367 91.4527 354.966 93.8011C353.564 96.1496 351.822 98.1477 349.739 99.7955C347.655 101.424 345.316 102.665 342.722 103.517C340.146 104.369 337.39 104.795 334.455 104.795C329.492 104.795 325.08 103.583 321.216 101.159C317.352 98.7348 314.313 95.2879 312.097 90.8182C309.881 86.3485 308.773 81.0455 308.773 74.9091C308.773 68.7727 309.881 63.4697 312.097 59C314.313 54.5303 317.352 51.0833 321.216 48.6591C325.08 46.2348 329.492 45.0227 334.455 45.0227C337.39 45.0227 340.146 45.4489 342.722 46.3011C345.316 47.1534 347.655 48.4034 349.739 50.0511C351.822 51.6799 353.564 53.6686 354.966 56.017C356.367 58.3466 357.333 61.0076 357.864 64Z" fill="#28B5BE"/>
<path d="M497.136 74.9091C497.136 81.0455 496.028 86.3485 493.812 90.8182C491.597 95.2879 488.557 98.7348 484.693 101.159C480.83 103.583 476.417 104.795 471.455 104.795C466.492 104.795 462.08 103.583 458.216 101.159C454.352 98.7348 451.313 95.2879 449.097 90.8182C446.881 86.3485 445.773 81.0455 445.773 74.9091C445.773 68.7727 446.881 63.4697 449.097 59C451.313 54.5303 454.352 51.0833 458.216 48.6591C462.08 46.2348 466.492 45.0227 471.455 45.0227C476.417 45.0227 480.83 46.2348 484.693 48.6591C488.557 51.0833 491.597 54.5303 493.812 59C496.028 63.4697 497.136 68.7727 497.136 74.9091ZM490.318 74.9091C490.318 69.8712 489.475 65.6193 487.79 62.1534C486.123 58.6875 483.86 56.0644 481 54.2841C478.159 52.5038 474.977 51.6136 471.455 51.6136C467.932 51.6136 464.741 52.5038 461.881 54.2841C459.04 56.0644 456.777 58.6875 455.091 62.1534C453.424 65.6193 452.591 69.8712 452.591 74.9091C452.591 79.947 453.424 84.1989 455.091 87.6648C456.777 91.1307 459.04 93.7538 461.881 95.5341C464.741 97.3144 467.932 98.2045 471.455 98.2045C474.977 98.2045 478.159 97.3144 481 95.5341C483.86 93.7538 486.123 91.1307 487.79 87.6648C489.475 84.1989 490.318 79.947 490.318 74.9091Z" fill="#28B5BE"/>
<path d="M573.045 45.8182H581.455L601.227 94.1136H601.909L621.682 45.8182H630.091V104H623.5V59.7955H622.932L604.75 104H598.386L580.205 59.7955H579.636V104H573.045V45.8182Z" fill="#28B5BE"/>
<path d="M223.136 74.9091C223.136 81.0455 222.028 86.3485 219.812 90.8182C217.597 95.2879 214.557 98.7348 210.693 101.159C206.83 103.583 202.417 104.795 197.455 104.795C192.492 104.795 188.08 103.583 184.216 101.159C180.352 98.7348 177.313 95.2879 175.097 90.8182C172.881 86.3485 171.773 81.0455 171.773 74.9091C171.773 68.7727 172.881 63.4697 175.097 59C177.313 54.5303 180.352 51.0833 184.216 48.6591C188.08 46.2348 192.492 45.0227 197.455 45.0227C202.417 45.0227 206.83 46.2348 210.693 48.6591C214.557 51.0833 217.597 54.5303 219.812 59C222.028 63.4697 223.136 68.7727 223.136 74.9091ZM216.318 74.9091C216.318 69.8712 215.475 65.6193 213.79 62.1534C212.123 58.6875 209.86 56.0644 207 54.2841C204.159 52.5038 200.977 51.6136 197.455 51.6136C193.932 51.6136 190.741 52.5038 187.881 54.2841C185.04 56.0644 182.777 58.6875 181.091 62.1534C179.424 65.6193 178.591 69.8712 178.591 74.9091C178.591 79.947 179.424 84.1989 181.091 87.6648C182.777 91.1307 185.04 93.7538 187.881 95.5341C190.741 97.3144 193.932 98.2045 197.455 98.2045C200.977 98.2045 204.159 97.3144 207 95.5341C209.86 93.7538 212.123 91.1307 213.79 87.6648C215.475 84.1989 216.318 79.947 216.318 74.9091Z" fill="#28B5BE"/>
<line x1="135.5" y1="22" x2="135.5" y2="117" stroke="#28B5BE" stroke-width="7"/>
<line x1="534.5" y1="22" x2="534.5" y2="117" stroke="#28B5BE" stroke-width="7"/>
<line x1="409.5" y1="22" x2="409.5" y2="117" stroke="#28B5BE" stroke-width="7"/>
<line x1="272.5" y1="22" x2="272.5" y2="117" stroke="#28B5BE" stroke-width="7"/>
</svg>
